<svg id="visual" viewBox="0 0 900 600" width="900" height="600" xmlns="http://www.w3.org/2000/svg" xmlns:xlink="http://www.w3.org/1999/xlink" version="1.1"><path d="M604 0L571.7 16.7C539.3 33.3 474.7 66.7 472 100C469.3 133.3 528.7 166.7 523.8 200C519 233.3 450 266.7 404.8 300C359.7 333.3 338.3 366.7 365.3 400C392.3 433.3 467.7 466.7 473.3 500C479 533.3 415 566.7 383 583.3L351 600L0 600L0 583.3C0 566.7 0 533.3 0 500C0 466.7 0 433.3 0 400C0 366.7 0 333.3 0 300C0 266.7 0 233.3 0 200C0 166.7 0 133.3 0 100C0 66.7 0 33.3 0 16.7L0 0Z" fill="#FFF" stroke-linecap="round" stroke-linejoin="miter"></path></svg>